<svg xmlns="http://www.w3.org/2000/svg" width="200" height="103.288" viewBox="0 0 200 103.288"><defs><style>.a{fill:#fff;}.b{fill:#ff8383;font-size:30px;font-family:NotoSansCJKjp-Black, Noto Sans CJK JP;font-weight:800;}.c,.d{stroke:none;}.d{fill:#4c3535;}</style></defs><g transform="translate(-581 -2871)"><g class="a" transform="translate(581 2871)"><path class="c" d="M 149.8212280273438 97.88475799560547 L 136.5334930419922 85.78208923339844 L 135.6748352050781 85.00000762939453 L 134.5133819580078 85.00000762939453 L 44 85.00000762939453 C 38.46372222900391 85.00000762939453 33.09461212158203 83.91638946533203 28.04186058044434 81.77925109863281 C 23.15997314453125 79.71439361572266 18.77497291564941 76.75772857666016 15.00861072540283 72.99139404296875 C 11.24227809906006 69.22502899169922 8.285611152648926 64.84003448486328 6.220749855041504 59.9581413269043 C 4.083611011505127 54.90539169311523 3 49.53628158569336 3 44.00000381469727 C 3 38.46372604370117 4.083611011505127 33.0946159362793 6.220749855041504 28.0418643951416 C 8.285611152648926 23.15997695922852 11.24227809906006 18.77497673034668 15.00861072540283 15.00861549377441 C 18.77497291564941 11.24228191375732 23.15997314453125 8.285614967346191 28.04186058044434 6.220754146575928 C 33.09461212158203 4.083615303039551 38.46372222900391 3.000004291534424 44 3.000004291534424 L 156 3.000004291534424 C 161.5362854003906 3.000004291534424 166.9053955078125 4.083615303039551 171.9581451416016 6.220754146575928 C 176.8400268554688 8.285614967346191 181.2250213623047 11.24228191375732 184.9913940429688 15.00861549377441 C 188.7577209472656 18.77497673034668 191.7143859863281 23.15997695922852 193.7792510986328 28.0418643951416 C 195.9163818359375 33.0946159362793 197 38.46372604370117 197 44.00000381469727 C 197 49.53628158569336 195.9163818359375 54.90539169311523 193.7792510986328 59.9581413269043 C 191.7143859863281 64.84003448486328 188.7577209472656 69.22502899169922 184.9913940429688 72.99139404296875 C 181.2250213623047 76.75772857666016 176.8400268554688 79.71439361572266 171.9581451416016 81.77925109863281 C 166.9053955078125 83.91638946533203 161.5362854003906 85.00000762939453 156 85.00000762939453 L 153.7839660644531 85.00000762939453 L 153.1325531005859 87.11811828613281 L 149.8212280273438 97.88475799560547 Z"/><path class="d" d="M 44 5.999984741210938 C 23.04672241210938 5.999984741210938 6 23.04673004150391 6 44.00001525878906 C 6 64.95326232910156 23.04672241210938 81.99998474121094 44 81.99998474121094 L 134.5133972167969 81.99998474121094 L 136.8363037109375 81.99998474121094 L 138.5536193847656 83.56417083740234 L 148.3442687988281 92.48166656494141 L 150.2650909423828 86.2362060546875 L 151.5679626464844 81.99998474121094 L 156 81.99998474121094 C 176.9532775878906 81.99998474121094 194 64.95326232910156 194 44.00001525878906 C 194 23.04673004150391 176.9532775878906 5.999984741210938 156 5.999984741210938 L 44 5.999984741210938 M 44 -1.52587890625e-05 L 156 -1.52587890625e-05 C 180.300537109375 -1.52587890625e-05 200 19.69948577880859 200 44.00001525878906 C 200 68.30051422119141 180.300537109375 87.99998474121094 156 87.99998474121094 L 151.2981567382812 103.2878265380859 L 134.5133972167969 87.99998474121094 L 44 87.99998474121094 C 19.699462890625 87.99998474121094 0 68.30051422119141 0 44.00001525878906 C 0 19.69948577880859 19.699462890625 -1.52587890625e-05 44 -1.52587890625e-05 Z"/></g><text class="b" transform="translate(606 2926)"><tspan x="0" y="0">肉食</tspan><tspan y="0">べたい</tspan></text></g></svg>